<svg version="1.2" baseProfile="tiny-ps" xmlns="http://www.w3.org/2000/svg" viewBox="0 0 25 38" width="25" height="38">
	<title>footer_0000_IG_icon-svg</title>
	<style>
		tspan { white-space:pre }
		.shp0 { fill: #ffffff } 
	</style>
	<g id="OBJECTS">
		<path id="Layer" class="shp0" d="M224.37 146.65C225.42 146.76 226.47 146.77 227.52 146.68C228.57 146.6 229.61 146.42 230.62 146.14C231.64 145.86 232.62 145.49 233.57 145.04C234.52 144.58 235.42 144.03 236.27 143.41C235.49 143.21 234.84 143.08 234.2 142.88C233.63 142.71 233.09 142.47 232.57 142.18C232.05 141.88 231.57 141.54 231.13 141.14C230.69 140.74 230.29 140.29 229.95 139.81C229.6 139.33 229.31 138.81 229.08 138.26C228.76 137.56 228.83 137.5 229.59 137.52C229.8 137.54 230.01 137.56 230.23 137.56C230.44 137.56 230.65 137.55 230.87 137.53C231.08 137.52 231.29 137.49 231.5 137.44C231.71 137.4 231.92 137.35 232.12 137.29C231.79 137.2 231.46 137.09 231.15 136.96C230.83 136.82 230.52 136.67 230.22 136.51C229.92 136.34 229.63 136.15 229.35 135.95C229.08 135.75 228.81 135.53 228.56 135.29C228.18 134.95 227.84 134.57 227.53 134.17C227.23 133.76 226.96 133.32 226.74 132.87C226.52 132.41 226.34 131.93 226.2 131.44C226.07 130.95 225.99 130.45 225.95 129.94C225.89 129.07 226 129.01 226.77 129.36C226.96 129.45 227.16 129.54 227.36 129.61C227.57 129.68 227.77 129.74 227.98 129.79C228.19 129.84 228.4 129.87 228.62 129.9C228.83 129.92 229.05 129.94 229.26 129.94C228.67 129.26 228.03 128.77 227.57 128.11C227.13 127.52 226.77 126.87 226.51 126.19C226.24 125.5 226.06 124.79 225.99 124.05C225.91 123.32 225.93 122.58 226.05 121.86C226.18 121.13 226.39 120.43 226.7 119.76C227.03 118.97 227.17 118.94 227.7 119.58C228.37 120.35 229.09 121.07 229.85 121.74C230.61 122.42 231.42 123.04 232.26 123.61C233.1 124.18 233.98 124.7 234.89 125.16C235.8 125.61 236.74 126.01 237.7 126.35C238.13 126.5 238.57 126.64 239.01 126.76C239.45 126.89 239.9 127 240.35 127.1C240.79 127.2 241.24 127.28 241.7 127.35C242.15 127.43 242.6 127.48 243.06 127.53C244 127.63 244.06 127.53 243.98 126.61C243.9 125.78 243.95 124.95 244.12 124.13C244.28 123.31 244.57 122.53 244.96 121.79C245.36 121.06 245.86 120.39 246.45 119.8C247.04 119.22 247.71 118.72 248.45 118.33C249.19 117.95 249.98 117.68 250.8 117.53C251.62 117.38 252.46 117.36 253.29 117.46C254.11 117.56 254.92 117.78 255.68 118.12C256.44 118.46 257.15 118.9 257.78 119.45C257.88 119.55 257.99 119.64 258.11 119.71C258.23 119.77 258.36 119.83 258.49 119.86C258.63 119.89 258.76 119.9 258.9 119.9C259.04 119.89 259.18 119.87 259.31 119.82C259.63 119.73 259.95 119.64 260.26 119.54C260.57 119.44 260.89 119.33 261.19 119.21C261.5 119.09 261.81 118.96 262.11 118.82C262.41 118.69 262.71 118.54 263 118.39C263.18 118.3 263.34 118.1 263.68 118.23C263.54 118.65 263.36 119.06 263.15 119.45C262.95 119.84 262.72 120.22 262.46 120.58C262.19 120.94 261.91 121.28 261.6 121.59C261.29 121.91 260.95 122.2 260.6 122.47C260.94 122.42 261.28 122.37 261.62 122.3C261.96 122.23 262.3 122.15 262.63 122.06C262.97 121.97 263.3 121.87 263.63 121.76C263.96 121.64 264.28 121.52 264.6 121.39C264.6 121.48 264.59 121.57 264.57 121.65C264.55 121.74 264.52 121.82 264.48 121.9C264.45 121.99 264.4 122.06 264.35 122.13C264.3 122.21 264.24 122.27 264.17 122.33C263.97 122.6 263.76 122.86 263.54 123.12C263.32 123.37 263.09 123.62 262.85 123.86C262.62 124.1 262.37 124.33 262.12 124.55C261.87 124.77 261.61 124.99 261.34 125.19C261.22 125.27 261.12 125.36 261.03 125.46C260.94 125.57 260.86 125.69 260.8 125.81C260.74 125.94 260.7 126.07 260.68 126.21C260.65 126.34 260.65 126.48 260.66 126.62C260.68 127.95 260.59 129.28 260.38 130.59C260.17 131.9 259.86 133.19 259.43 134.45C259.01 135.71 258.48 136.93 257.84 138.1C257.21 139.26 256.48 140.38 255.66 141.42C254.74 142.66 253.7 143.8 252.54 144.83C251.39 145.85 250.13 146.75 248.79 147.51C247.45 148.27 246.03 148.89 244.56 149.36C243.09 149.83 241.58 150.15 240.04 150.3C238.75 150.47 237.45 150.54 236.15 150.49C234.86 150.45 233.56 150.3 232.29 150.05C231.02 149.79 229.77 149.43 228.55 148.97C227.34 148.51 226.16 147.95 225.04 147.3C225 147.28 224.96 147.25 224.91 147.23C224.87 147.2 224.83 147.18 224.79 147.15C224.75 147.13 224.71 147.1 224.67 147.07C224.63 147.05 224.59 147.02 224.55 146.99C224.53 146.96 224.52 146.93 224.5 146.91C224.49 146.88 224.47 146.85 224.46 146.82C224.44 146.79 224.43 146.77 224.41 146.74C224.4 146.71 224.38 146.68 224.37 146.65L224.37 146.65Z" />
		<path id="Layer" fill-rule="evenodd" class="shp0" d="M-52 20.13C-51.97 19.84 -51.92 19.56 -51.87 19.27C-51.81 18.99 -51.74 18.71 -51.65 18.43C-51.57 18.16 -51.47 17.88 -51.36 17.62C-51.25 17.35 -51.13 17.09 -51 16.83C-50.68 16.31 -50.29 15.83 -49.84 15.41C-49.39 14.99 -48.89 14.64 -48.35 14.35C-47.81 14.06 -47.23 13.85 -46.63 13.71C-46.04 13.58 -45.42 13.52 -44.81 13.55C-41.32 13.45 -37.81 13.45 -34.34 13.55C-33.77 13.53 -33.19 13.58 -32.63 13.69C-32.07 13.81 -31.53 14 -31.01 14.25C-30.5 14.5 -30.02 14.81 -29.58 15.18C-29.14 15.55 -28.75 15.97 -28.41 16.43C-28.19 16.75 -27.99 17.09 -27.82 17.43C-27.65 17.78 -27.51 18.15 -27.4 18.52C-27.28 18.89 -27.19 19.27 -27.14 19.65C-27.08 20.03 -27.05 20.42 -27.05 20.81C-26.99 24.16 -26.96 27.52 -27.05 30.87C-27.11 33.57 -28.05 35.87 -30.57 37.26C-30.86 37.41 -31.16 37.55 -31.46 37.66C-31.77 37.78 -32.08 37.87 -32.39 37.95C-32.71 38.03 -33.03 38.09 -33.35 38.13C-33.68 38.17 -34 38.19 -34.33 38.19C-37.77 38.24 -41.22 38.28 -44.66 38.19C-45.28 38.22 -45.9 38.17 -46.5 38.04C-47.11 37.91 -47.69 37.7 -48.24 37.41C-48.79 37.13 -49.3 36.77 -49.76 36.35C-50.21 35.93 -50.61 35.45 -50.94 34.93C-51.08 34.67 -51.2 34.41 -51.31 34.14C-51.43 33.88 -51.53 33.6 -51.62 33.33C-51.7 33.05 -51.78 32.77 -51.84 32.49C-51.9 32.2 -51.95 31.92 -51.99 31.63C-51.99 27.8 -52 23.97 -52 20.13ZM-44.64 15.9C-47.32 15.97 -48.96 17.22 -49.44 19.52C-49.47 19.64 -49.49 19.77 -49.51 19.89C-49.53 20.02 -49.55 20.14 -49.57 20.27C-49.58 20.39 -49.59 20.52 -49.6 20.64C-49.61 20.77 -49.62 20.89 -49.62 21.02C-49.62 24.26 -49.67 27.5 -49.62 30.74C-49.57 33.98 -47.92 35.68 -44.81 35.79C-41.3 35.92 -37.81 35.9 -34.26 35.79C-31.67 35.7 -30.14 34.45 -29.64 32.21C-29.62 32.11 -29.59 32.01 -29.58 31.91C-29.56 31.81 -29.54 31.71 -29.53 31.61C-29.51 31.51 -29.5 31.41 -29.49 31.31C-29.48 31.2 -29.47 31.1 -29.47 31C-29.47 27.3 -29.27 23.6 -29.61 19.91C-29.64 19.41 -29.76 18.92 -29.96 18.47C-30.16 18.01 -30.45 17.6 -30.8 17.24C-31.15 16.88 -31.56 16.59 -32.01 16.38C-32.47 16.17 -32.95 16.05 -33.45 16.01C-33.95 15.97 -34.46 15.94 -34.96 15.92C-35.47 15.9 -35.97 15.88 -36.48 15.87C-36.98 15.86 -37.49 15.86 -37.99 15.86C-38.5 15.87 -39.01 15.88 -39.51 15.9C-41.22 15.9 -42.93 15.9 -44.64 15.9Z" />
		<path id="Layer" fill-rule="evenodd" class="shp0" d="M-33.05 25.89C-33.06 26.73 -33.24 27.56 -33.56 28.33C-33.89 29.11 -34.37 29.81 -34.96 30.4C-35.56 30.99 -36.26 31.46 -37.04 31.79C-37.81 32.11 -38.64 32.28 -39.48 32.29C-40.33 32.3 -41.18 32.13 -41.97 31.81C-42.76 31.49 -43.48 31.01 -44.08 30.41C-44.69 29.81 -45.17 29.1 -45.5 28.31C-45.83 27.53 -46 26.68 -46 25.83C-45.99 24.98 -45.81 24.15 -45.48 23.37C-45.15 22.59 -44.66 21.89 -44.06 21.29C-43.46 20.7 -42.74 20.23 -41.96 19.91C-41.18 19.59 -40.34 19.43 -39.49 19.43C-38.64 19.44 -37.81 19.61 -37.03 19.94C-36.25 20.26 -35.54 20.74 -34.94 21.34C-34.35 21.94 -33.87 22.65 -33.55 23.43C-33.22 24.21 -33.05 25.04 -33.05 25.89ZM-35.45 25.86C-35.45 25.87 -35.45 25.87 -35.45 25.88C-35.45 25.88 -35.45 25.89 -35.45 25.89L-35.45 25.86ZM-35.78 24.35C-35.99 23.87 -36.29 23.43 -36.67 23.06C-37.04 22.69 -37.49 22.39 -37.98 22.19C-38.47 21.99 -38.99 21.89 -39.52 21.89C-40.05 21.89 -40.57 21.99 -41.06 22.19C-41.56 22.39 -42 22.68 -42.38 23.05C-42.76 23.42 -43.06 23.87 -43.27 24.35C-43.48 24.84 -43.59 25.36 -43.6 25.89C-43.59 26.42 -43.48 26.94 -43.27 27.43C-43.06 27.91 -42.76 28.35 -42.38 28.72C-42.01 29.09 -41.56 29.39 -41.07 29.59C-40.58 29.79 -40.06 29.89 -39.53 29.89C-39 29.89 -38.47 29.79 -37.98 29.58C-37.49 29.38 -37.04 29.09 -36.66 28.71C-36.28 28.34 -35.98 27.9 -35.77 27.41C-35.57 26.92 -35.46 26.4 -35.45 25.88C-35.46 25.35 -35.57 24.84 -35.78 24.35Z" />
		<path id="Layer" class="shp0" d="M-32.89 17.72C-32.69 17.72 -32.48 17.76 -32.29 17.83C-32.1 17.91 -31.93 18.02 -31.78 18.16C-31.63 18.31 -31.52 18.48 -31.44 18.66C-31.36 18.85 -31.31 19.06 -31.31 19.26C-31.31 19.46 -31.36 19.66 -31.44 19.84C-31.51 20.03 -31.63 20.19 -31.77 20.33C-31.91 20.48 -32.08 20.59 -32.26 20.67C-32.44 20.75 -32.64 20.79 -32.84 20.8C-33.05 20.8 -33.25 20.77 -33.44 20.69C-33.63 20.62 -33.81 20.51 -33.96 20.37C-34.1 20.23 -34.23 20.06 -34.31 19.87C-34.39 19.69 -34.44 19.48 -34.45 19.28C-34.45 19.07 -34.41 18.87 -34.33 18.68C-34.26 18.49 -34.14 18.32 -34 18.17C-33.85 18.03 -33.68 17.91 -33.49 17.84C-33.3 17.76 -33.1 17.72 -32.89 17.72L-32.89 17.72Z" />
		<path id="Layer" class="shp0" d="M67.41 23.22C67.41 23.24 67.41 23.27 67.42 23.29C67.42 23.32 67.42 23.34 67.42 23.36C67.42 23.39 67.42 23.41 67.42 23.44C67.41 23.46 67.41 23.49 67.41 23.51C67.42 23.49 67.42 23.46 67.42 23.44C67.43 23.41 67.43 23.39 67.43 23.36C67.43 23.34 67.43 23.32 67.42 23.29C67.42 23.27 67.42 23.24 67.41 23.22L67.41 23.22Z" />
		<path id="Layer" fill-rule="evenodd" class="shp0" d="M80.83 23.41C80.83 37.46 80.48 39.26 60.24 39.26C40 39.26 39.64 37.47 39.64 23.41C39.64 9.35 40 7.55 60.24 7.55C80.47 7.55 80.83 9.36 80.83 23.41ZM66.8 24.45C66.88 24.41 66.96 24.36 67.04 24.3C67.11 24.23 67.17 24.16 67.22 24.09C67.28 24.01 67.32 23.92 67.35 23.84C67.38 23.75 67.4 23.65 67.41 23.56C67.42 23.54 67.42 23.51 67.42 23.49C67.43 23.46 67.43 23.44 67.43 23.42C67.43 23.39 67.43 23.37 67.42 23.34C67.42 23.32 67.42 23.29 67.41 23.27C67.39 23.18 67.37 23.1 67.33 23.02C67.29 22.94 67.25 22.86 67.19 22.79C67.14 22.72 67.08 22.66 67.01 22.6C66.94 22.54 66.86 22.5 66.78 22.46L57.49 18.17C57.32 18.09 57.13 18.06 56.95 18.07C56.76 18.08 56.58 18.14 56.42 18.24C56.26 18.34 56.13 18.48 56.04 18.64C55.95 18.8 55.89 18.98 55.89 19.17L55.89 27.94C55.89 28.13 55.94 28.32 56.04 28.48C56.13 28.65 56.26 28.78 56.43 28.88C56.59 28.98 56.77 29.04 56.96 29.05C57.15 29.06 57.34 29.02 57.51 28.94L66.8 24.45Z" />
		<path id="Layer" class="shp0" d="M21.1 21.11L22.51 14.72L15.91 14.72L15.91 10.37C15.87 9.9 15.94 9.42 16.1 8.98C16.26 8.53 16.51 8.12 16.84 7.78C17.16 7.43 17.56 7.16 18 6.98C18.43 6.8 18.91 6.71 19.38 6.72L22.45 6.72L22.45 0.02L17.82 0.02C11.26 0.02 8.17 4.02 8.21 9.56L8.21 14.83L3.07 14.83L3.07 21.19L8.21 21.19L8.37 37.72C8.74 37.81 9.11 37.88 9.49 37.94C9.86 38.01 10.24 38.06 10.62 38.1C10.99 38.14 11.37 38.17 11.75 38.18C12.13 38.2 12.51 38.21 12.89 38.2C13.16 38.2 13.42 38.19 13.69 38.17C13.96 38.16 14.22 38.14 14.49 38.11C14.76 38.09 15.02 38.06 15.29 38.02C15.55 37.99 15.82 37.95 16.08 37.9L15.95 21.15L21.1 21.11Z" />
	</g>
</svg>