<svg version="1.2" baseProfile="tiny-ps" xmlns="http://www.w3.org/2000/svg" viewBox="0 0 28 30" width="28" height="30">
	<title>footer_0000_IG_icon-svg</title>
	<style>
		tspan { white-space:pre }
		.shp0 { fill: #ffffff } 
	</style>
	<g id="OBJECTS">
		<path id="Layer" class="shp0" d="M276.37 135.65C277.42 135.76 278.47 135.77 279.52 135.68C280.57 135.6 281.61 135.42 282.62 135.14C283.64 134.86 284.62 134.49 285.57 134.04C286.52 133.58 287.42 133.03 288.27 132.41C287.49 132.21 286.84 132.08 286.2 131.88C285.63 131.71 285.09 131.47 284.57 131.18C284.05 130.88 283.57 130.54 283.13 130.14C282.69 129.74 282.29 129.29 281.95 128.81C281.6 128.33 281.31 127.81 281.08 127.26C280.76 126.56 280.83 126.5 281.59 126.52C281.8 126.54 282.01 126.56 282.23 126.56C282.44 126.56 282.65 126.55 282.87 126.53C283.08 126.52 283.29 126.49 283.5 126.44C283.71 126.4 283.92 126.35 284.12 126.29C283.79 126.2 283.46 126.09 283.15 125.96C282.83 125.82 282.52 125.67 282.22 125.51C281.92 125.34 281.63 125.15 281.35 124.95C281.08 124.75 280.81 124.53 280.56 124.29C280.18 123.95 279.84 123.57 279.53 123.17C279.23 122.76 278.96 122.32 278.74 121.87C278.52 121.41 278.34 120.93 278.2 120.44C278.07 119.95 277.99 119.45 277.95 118.94C277.89 118.07 278 118.01 278.77 118.36C278.96 118.45 279.16 118.54 279.36 118.61C279.57 118.68 279.77 118.74 279.98 118.79C280.19 118.84 280.4 118.87 280.62 118.9C280.83 118.92 281.05 118.94 281.26 118.94C280.67 118.26 280.03 117.77 279.57 117.11C279.13 116.52 278.77 115.87 278.51 115.19C278.24 114.5 278.06 113.79 277.99 113.05C277.91 112.32 277.93 111.58 278.05 110.86C278.18 110.13 278.39 109.43 278.7 108.76C279.03 107.97 279.17 107.94 279.7 108.58C280.37 109.35 281.09 110.07 281.85 110.74C282.61 111.42 283.42 112.04 284.26 112.61C285.1 113.18 285.98 113.7 286.89 114.16C287.8 114.61 288.74 115.01 289.7 115.35C290.13 115.5 290.57 115.64 291.01 115.76C291.45 115.89 291.9 116 292.35 116.1C292.79 116.2 293.24 116.28 293.7 116.35C294.15 116.43 294.6 116.48 295.06 116.53C296 116.63 296.06 116.53 295.98 115.61C295.9 114.78 295.95 113.95 296.12 113.13C296.28 112.31 296.57 111.53 296.96 110.79C297.36 110.06 297.86 109.39 298.45 108.8C299.04 108.22 299.71 107.72 300.45 107.33C301.19 106.95 301.98 106.68 302.8 106.53C303.62 106.38 304.46 106.36 305.29 106.46C306.11 106.56 306.92 106.78 307.68 107.12C308.44 107.46 309.15 107.9 309.78 108.45C309.88 108.55 309.99 108.64 310.11 108.71C310.23 108.77 310.36 108.83 310.49 108.86C310.63 108.89 310.76 108.9 310.9 108.9C311.04 108.89 311.18 108.87 311.31 108.82C311.63 108.73 311.95 108.64 312.26 108.54C312.57 108.44 312.89 108.33 313.19 108.21C313.5 108.09 313.81 107.96 314.11 107.82C314.41 107.69 314.71 107.54 315 107.39C315.18 107.3 315.34 107.1 315.68 107.23C315.54 107.65 315.36 108.06 315.15 108.45C314.95 108.84 314.72 109.22 314.46 109.58C314.19 109.94 313.91 110.28 313.6 110.59C313.29 110.91 312.95 111.2 312.6 111.47C312.94 111.42 313.28 111.37 313.62 111.3C313.96 111.23 314.3 111.15 314.63 111.06C314.97 110.97 315.3 110.87 315.63 110.76C315.96 110.64 316.28 110.52 316.6 110.39C316.6 110.48 316.59 110.57 316.57 110.65C316.55 110.74 316.52 110.82 316.48 110.9C316.45 110.99 316.4 111.06 316.35 111.13C316.3 111.21 316.24 111.27 316.17 111.33C315.97 111.6 315.76 111.86 315.54 112.12C315.32 112.37 315.09 112.62 314.85 112.86C314.62 113.1 314.37 113.33 314.12 113.55C313.87 113.77 313.61 113.99 313.34 114.19C313.22 114.27 313.12 114.36 313.03 114.46C312.94 114.57 312.86 114.69 312.8 114.81C312.74 114.94 312.7 115.07 312.68 115.21C312.65 115.34 312.65 115.48 312.66 115.62C312.68 116.95 312.59 118.28 312.38 119.59C312.17 120.9 311.86 122.19 311.43 123.45C311.01 124.71 310.48 125.93 309.84 127.1C309.21 128.26 308.48 129.38 307.66 130.42C306.74 131.66 305.7 132.8 304.54 133.83C303.39 134.85 302.13 135.75 300.79 136.51C299.45 137.27 298.03 137.89 296.56 138.36C295.09 138.83 293.58 139.15 292.04 139.3C290.75 139.47 289.45 139.54 288.15 139.49C286.86 139.45 285.56 139.3 284.29 139.05C283.02 138.79 281.77 138.43 280.55 137.97C279.34 137.51 278.16 136.95 277.04 136.3C277 136.28 276.96 136.25 276.91 136.23C276.87 136.2 276.83 136.18 276.79 136.15C276.75 136.13 276.71 136.1 276.67 136.07C276.63 136.05 276.59 136.02 276.55 135.99C276.53 135.96 276.52 135.93 276.5 135.91C276.49 135.88 276.47 135.85 276.46 135.82C276.44 135.79 276.43 135.77 276.41 135.74C276.4 135.71 276.38 135.68 276.37 135.65L276.37 135.65Z" />
		<path id="Layer" fill-rule="evenodd" class="shp0" d="M0 9.13C0.03 8.84 0.08 8.56 0.13 8.27C0.19 7.99 0.26 7.71 0.35 7.43C0.43 7.16 0.53 6.88 0.64 6.62C0.75 6.35 0.87 6.09 1 5.83C1.32 5.31 1.71 4.83 2.16 4.41C2.61 3.99 3.11 3.64 3.65 3.35C4.19 3.06 4.77 2.85 5.37 2.71C5.96 2.58 6.58 2.52 7.19 2.55C10.68 2.45 14.19 2.45 17.66 2.55C18.23 2.53 18.81 2.58 19.37 2.69C19.93 2.81 20.47 3 20.99 3.25C21.5 3.5 21.98 3.81 22.42 4.18C22.86 4.55 23.25 4.97 23.59 5.43C23.81 5.75 24.01 6.09 24.18 6.43C24.35 6.78 24.49 7.15 24.6 7.52C24.72 7.89 24.81 8.27 24.86 8.65C24.92 9.03 24.95 9.42 24.95 9.81C25.01 13.16 25.04 16.52 24.95 19.87C24.89 22.57 23.95 24.87 21.43 26.26C21.14 26.41 20.84 26.55 20.54 26.66C20.23 26.78 19.92 26.87 19.61 26.95C19.29 27.03 18.97 27.09 18.65 27.13C18.32 27.17 18 27.19 17.67 27.19C14.23 27.24 10.78 27.28 7.34 27.19C6.72 27.22 6.1 27.17 5.5 27.04C4.89 26.91 4.31 26.7 3.76 26.41C3.21 26.13 2.7 25.77 2.24 25.35C1.79 24.93 1.39 24.45 1.06 23.93C0.92 23.67 0.8 23.41 0.69 23.14C0.57 22.88 0.47 22.6 0.38 22.33C0.3 22.05 0.22 21.77 0.16 21.49C0.1 21.2 0.05 20.92 0.01 20.63C0.01 16.8 0 12.97 0 9.13ZM7.36 4.9C4.68 4.97 3.04 6.22 2.56 8.52C2.53 8.64 2.51 8.77 2.49 8.89C2.47 9.02 2.45 9.14 2.43 9.27C2.42 9.39 2.41 9.52 2.4 9.64C2.39 9.77 2.38 9.89 2.38 10.02C2.38 13.26 2.33 16.5 2.38 19.74C2.43 22.98 4.08 24.68 7.19 24.79C10.7 24.92 14.19 24.9 17.74 24.79C20.33 24.7 21.86 23.45 22.36 21.21C22.38 21.11 22.41 21.01 22.42 20.91C22.44 20.81 22.46 20.71 22.47 20.61C22.49 20.51 22.5 20.41 22.51 20.31C22.52 20.2 22.53 20.1 22.53 20C22.53 16.3 22.73 12.6 22.39 8.91C22.36 8.41 22.24 7.92 22.04 7.47C21.84 7.01 21.55 6.6 21.2 6.24C20.85 5.88 20.44 5.59 19.99 5.38C19.53 5.17 19.05 5.05 18.55 5.01C18.05 4.97 17.54 4.94 17.04 4.92C16.53 4.9 16.03 4.88 15.52 4.87C15.02 4.86 14.51 4.86 14.01 4.86C13.5 4.87 12.99 4.88 12.49 4.9C10.78 4.9 9.07 4.9 7.36 4.9Z" />
		<path id="Layer" fill-rule="evenodd" class="shp0" d="M18.95 14.89C18.94 15.73 18.76 16.56 18.44 17.33C18.11 18.11 17.63 18.81 17.04 19.4C16.44 19.99 15.74 20.46 14.96 20.79C14.19 21.11 13.36 21.28 12.52 21.29C11.67 21.3 10.82 21.13 10.03 20.81C9.24 20.49 8.52 20.01 7.92 19.41C7.31 18.81 6.83 18.1 6.5 17.31C6.17 16.53 6 15.68 6 14.83C6.01 13.98 6.19 13.15 6.52 12.37C6.85 11.59 7.34 10.89 7.94 10.29C8.54 9.7 9.26 9.23 10.04 8.91C10.82 8.59 11.66 8.43 12.51 8.43C13.36 8.44 14.19 8.61 14.97 8.94C15.75 9.26 16.46 9.74 17.06 10.34C17.65 10.94 18.13 11.65 18.45 12.43C18.78 13.21 18.95 14.04 18.95 14.89ZM16.55 14.86C16.55 14.87 16.55 14.87 16.55 14.88C16.55 14.88 16.55 14.89 16.55 14.89L16.55 14.86ZM16.22 13.35C16.01 12.87 15.71 12.43 15.33 12.06C14.96 11.69 14.51 11.39 14.02 11.19C13.53 10.99 13.01 10.89 12.48 10.89C11.95 10.89 11.43 10.99 10.94 11.19C10.44 11.39 10 11.68 9.62 12.05C9.24 12.42 8.94 12.87 8.73 13.35C8.52 13.84 8.41 14.36 8.4 14.89C8.41 15.42 8.52 15.94 8.73 16.43C8.94 16.91 9.24 17.35 9.62 17.72C9.99 18.09 10.44 18.39 10.93 18.59C11.42 18.79 11.94 18.89 12.47 18.89C13 18.89 13.53 18.79 14.02 18.58C14.51 18.38 14.96 18.09 15.34 17.71C15.72 17.34 16.02 16.9 16.23 16.41C16.43 15.92 16.54 15.4 16.55 14.88C16.54 14.35 16.43 13.84 16.22 13.35Z" />
		<path id="Layer" class="shp0" d="M19.11 6.72C19.31 6.72 19.52 6.76 19.71 6.83C19.9 6.91 20.07 7.02 20.22 7.16C20.37 7.31 20.48 7.48 20.56 7.66C20.64 7.85 20.69 8.06 20.69 8.26C20.69 8.46 20.64 8.66 20.56 8.84C20.49 9.03 20.37 9.19 20.23 9.33C20.09 9.48 19.92 9.59 19.74 9.67C19.56 9.75 19.36 9.79 19.16 9.8C18.95 9.8 18.75 9.77 18.56 9.69C18.37 9.62 18.19 9.51 18.04 9.37C17.9 9.23 17.77 9.06 17.69 8.87C17.61 8.69 17.56 8.48 17.55 8.28C17.55 8.07 17.59 7.87 17.67 7.68C17.74 7.49 17.86 7.32 18 7.17C18.15 7.03 18.32 6.91 18.51 6.84C18.7 6.76 18.9 6.72 19.11 6.72L19.11 6.72Z" />
		<path id="Layer" class="shp0" d="M119.41 12.22C119.41 12.24 119.41 12.27 119.42 12.29C119.42 12.32 119.42 12.34 119.42 12.36C119.42 12.39 119.42 12.41 119.42 12.44C119.41 12.46 119.41 12.49 119.41 12.51C119.42 12.49 119.42 12.46 119.42 12.44C119.43 12.41 119.43 12.39 119.43 12.36C119.43 12.34 119.43 12.32 119.42 12.29C119.42 12.27 119.42 12.24 119.41 12.22L119.41 12.22Z" />
		<path id="Layer" fill-rule="evenodd" class="shp0" d="M132.83 12.41C132.83 26.46 132.48 28.26 112.24 28.26C92 28.26 91.64 26.47 91.64 12.41C91.64 -1.65 92 -3.45 112.24 -3.45C132.47 -3.45 132.83 -1.64 132.83 12.41ZM118.8 13.45C118.88 13.41 118.96 13.36 119.04 13.3C119.11 13.23 119.17 13.16 119.22 13.09C119.28 13.01 119.32 12.92 119.35 12.84C119.38 12.75 119.4 12.65 119.41 12.56C119.42 12.54 119.42 12.51 119.42 12.49C119.43 12.46 119.43 12.44 119.43 12.42C119.43 12.39 119.43 12.37 119.42 12.34C119.42 12.32 119.42 12.29 119.41 12.27C119.39 12.18 119.37 12.1 119.33 12.02C119.29 11.94 119.25 11.86 119.19 11.79C119.14 11.72 119.08 11.66 119.01 11.6C118.94 11.54 118.86 11.5 118.78 11.46L109.49 7.17C109.32 7.09 109.13 7.06 108.95 7.07C108.76 7.08 108.58 7.14 108.42 7.24C108.26 7.34 108.13 7.48 108.04 7.64C107.95 7.8 107.89 7.98 107.89 8.17L107.89 16.94C107.89 17.13 107.94 17.32 108.04 17.48C108.13 17.65 108.26 17.78 108.43 17.88C108.59 17.98 108.77 18.04 108.96 18.05C109.15 18.06 109.34 18.02 109.51 17.94L118.8 13.45Z" />
		<path id="Layer" class="shp0" d="M73.1 10.11L74.51 3.72L67.91 3.72L67.91 -0.63C67.87 -1.1 67.94 -1.58 68.1 -2.02C68.26 -2.47 68.51 -2.88 68.84 -3.22C69.16 -3.57 69.56 -3.84 70 -4.02C70.43 -4.2 70.91 -4.29 71.38 -4.28L74.45 -4.28L74.45 -10.98L69.82 -10.98C63.26 -10.98 60.17 -6.98 60.21 -1.44L60.21 3.83L55.07 3.83L55.07 10.19L60.21 10.19L60.37 26.72C60.74 26.81 61.11 26.88 61.49 26.94C61.86 27.01 62.24 27.06 62.62 27.1C62.99 27.14 63.37 27.17 63.75 27.18C64.13 27.2 64.51 27.21 64.89 27.2C65.16 27.2 65.42 27.19 65.69 27.17C65.96 27.16 66.22 27.14 66.49 27.11C66.76 27.09 67.02 27.06 67.29 27.02C67.55 26.99 67.82 26.95 68.08 26.9L67.95 10.15L73.1 10.11Z" />
	</g>
</svg>