<svg xmlns="http://www.w3.org/2000/svg" viewBox="0 0 289 81.96"><defs><style>.cls-1{fill:#221f20;}</style></defs><g id="Layer_2" data-name="Layer 2"><g id="artwork"><path class="cls-1" d="M54.45,81.8V65.61L47.07,78.24h-.85L38.84,65.61V81.8H37.49V63.07h1.35l7.8,13.4,7.81-13.4H55.8V81.8Z"/><path class="cls-1" d="M67.9,63.07h1.16L77,81.8H75.55l-2.61-6.17H64L61.39,81.8H59.94Zm4.67,11.45-4.09-9.81-4.17,9.81Z"/><path class="cls-1" d="M81.14,81.8V63.07h6.22a9.57,9.57,0,0,1,3.89.74,7.88,7.88,0,0,1,2.79,2,8.5,8.5,0,0,1,1.66,3,11.69,11.69,0,0,1,.55,3.63,11.41,11.41,0,0,1-.62,3.86,8.17,8.17,0,0,1-1.78,3A7.9,7.9,0,0,1,91,81.13a9.61,9.61,0,0,1-3.68.67Zm13.77-9.39a10.32,10.32,0,0,0-.5-3.26,7.48,7.48,0,0,0-1.47-2.57,6.75,6.75,0,0,0-2.36-1.69,8.08,8.08,0,0,0-3.22-.6H82.48v16.3h4.88A8.1,8.1,0,0,0,90.62,80,6.55,6.55,0,0,0,93,78.24a7.65,7.65,0,0,0,1.44-2.6A10.46,10.46,0,0,0,94.91,72.41Z"/><path class="cls-1" d="M113.74,80.59V81.8H101.26V63.07H113.5v1.22H102.61v7.36h9.52v1.16h-9.52v7.78Z"/><path class="cls-1" d="M140.61,77a4.54,4.54,0,0,1-.4,1.91,4.77,4.77,0,0,1-1.08,1.54,4.88,4.88,0,0,1-1.61,1,5.09,5.09,0,0,1-2,.37h-8.75V63.07h8.73a3.67,3.67,0,0,1,1.76.43,4.35,4.35,0,0,1,1.35,1.09,5.18,5.18,0,0,1,1.16,3.26,5,5,0,0,1-.71,2.61,4.29,4.29,0,0,1-2,1.74A4.66,4.66,0,0,1,139.67,74,4.93,4.93,0,0,1,140.61,77ZM128.16,64.29v7.49H135a3.1,3.1,0,0,0,1.4-.32,3.59,3.59,0,0,0,1.09-.83,3.82,3.82,0,0,0,.73-1.2,4,4,0,0,0,.26-1.4,4,4,0,0,0-.25-1.43,4,4,0,0,0-.69-1.19,3.21,3.21,0,0,0-1-.82,3,3,0,0,0-1.34-.3Zm11.11,12.47a4,4,0,0,0-.27-1.44,3.85,3.85,0,0,0-.74-1.23,3.5,3.5,0,0,0-1.12-.86,3.11,3.11,0,0,0-1.38-.32h-7.6v7.68h7.41a3.44,3.44,0,0,0,1.47-.32,3.77,3.77,0,0,0,1.16-.86,4.7,4.7,0,0,0,.78-1.22A3.73,3.73,0,0,0,139.27,76.76Z"/><path class="cls-1" d="M144.35,63.07l6.54,10.37,6.57-10.37H159l-7.39,11.66V81.8h-1.34V74.68l-7.36-11.61Z"/><path class="cls-1" d="M187.37,81.8V65.61L180,78.24h-.84l-7.38-12.63V81.8h-1.35V63.07h1.35l7.8,13.4,7.81-13.4h1.34V81.8Z"/><path class="cls-1" d="M202.4,81.93a7.68,7.68,0,0,1-3.56-.82A9.2,9.2,0,0,1,196.07,79a9.54,9.54,0,0,1-1.79-3,10.06,10.06,0,0,1-.63-3.5,9.7,9.7,0,0,1,.67-3.59,10.12,10.12,0,0,1,1.84-3,8.88,8.88,0,0,1,2.79-2.1,7.86,7.86,0,0,1,3.48-.78,7.75,7.75,0,0,1,3.57.83A9,9,0,0,1,208.77,66a10.17,10.17,0,0,1,2.41,6.49,9.91,9.91,0,0,1-2.52,6.63,8.67,8.67,0,0,1-2.78,2.08A7.86,7.86,0,0,1,202.4,81.93ZM195,72.44a9.07,9.07,0,0,0,.54,3.1,8.3,8.3,0,0,0,1.53,2.63A7.57,7.57,0,0,0,199.42,80a6.75,6.75,0,0,0,3,.68,6.49,6.49,0,0,0,3-.71,7.21,7.21,0,0,0,2.32-1.89,8.52,8.52,0,0,0,1.49-2.65,8.63,8.63,0,0,0,.53-3,8.77,8.77,0,0,0-.55-3.1,8.57,8.57,0,0,0-1.54-2.64,7.73,7.73,0,0,0-2.34-1.83,6.38,6.38,0,0,0-2.95-.69,6.57,6.57,0,0,0-3.06.71A7.6,7.6,0,0,0,197,66.78a8.66,8.66,0,0,0-1.5,2.65A9,9,0,0,0,195,72.44Z"/><path class="cls-1" d="M233.07,81.8V65.61l-7.38,12.63h-.85l-7.38-12.63V81.8h-1.35V63.07h1.35l7.81,13.4,7.8-13.4h1.35V81.8Z"/><path class="cls-1" d="M251.53,66.19a6.51,6.51,0,0,0-5.14-2,6.15,6.15,0,0,0-4,1A3.45,3.45,0,0,0,241.14,68a3.19,3.19,0,0,0,.32,1.49,2.72,2.72,0,0,0,1,1,6.44,6.44,0,0,0,1.7.71c.68.2,1.51.4,2.48.61s1.91.44,2.73.7a7.87,7.87,0,0,1,2.08,1,4.09,4.09,0,0,1,1.32,1.43,4.24,4.24,0,0,1,.46,2.08,4.47,4.47,0,0,1-.49,2.16,4.21,4.21,0,0,1-1.37,1.54,6.27,6.27,0,0,1-2.11.94,11,11,0,0,1-2.73.32,10.5,10.5,0,0,1-7.41-2.8l.71-1.08a8.66,8.66,0,0,0,2.9,2,9.91,9.91,0,0,0,3.86.72,7,7,0,0,0,3.83-.9,3,3,0,0,0,1.39-2.71,3.17,3.17,0,0,0-.37-1.57,3.26,3.26,0,0,0-1.1-1.12,7.11,7.11,0,0,0-1.83-.82q-1.11-.34-2.58-.66c-1-.21-1.89-.43-2.65-.67a7.06,7.06,0,0,1-1.93-.9,3.53,3.53,0,0,1-1.17-1.3,4.12,4.12,0,0,1-.4-1.93,4.89,4.89,0,0,1,.49-2.24,4.71,4.71,0,0,1,1.36-1.65,5.85,5.85,0,0,1,2.08-1,9.84,9.84,0,0,1,2.69-.35,9.1,9.1,0,0,1,3.24.54,7.61,7.61,0,0,1,2.59,1.65Z"/><path class="cls-1" d="M68.5,41.74,63,29.83H38.93l-5.4,11.91h-2.2L49.89.6h1.77L70.73,41.74ZM50.83,3.41,39.72,28H62.19Z"/><polygon class="cls-1" points="142.86 0.6 126.01 25.5 126.01 41.74 123.91 41.74 123.91 25.53 107.21 0.6 109.5 0.6 124.97 23.64 140.57 0.6 142.86 0.6"/><path class="cls-1" d="M229.15,39.61a25.9,25.9,0,0,1-23.29,0,20.18,20.18,0,0,1-8-7.6A20.62,20.62,0,0,1,195,21.23a20.77,20.77,0,0,1,2.87-10.82,20.32,20.32,0,0,1,8-7.63,25.82,25.82,0,0,1,23.29,0,20.23,20.23,0,0,1,8,7.61,20.87,20.87,0,0,1,2.89,10.85A20.72,20.72,0,0,1,237.2,32a20.16,20.16,0,0,1-8,7.58m-22.21-1.67a23.51,23.51,0,0,0,21.12,0,18.27,18.27,0,0,0,7.33-6.9A18.8,18.8,0,0,0,238,21.23a18.92,18.92,0,0,0-2.62-9.87,18.44,18.44,0,0,0-7.33-6.94,23.26,23.26,0,0,0-21.12,0,18.57,18.57,0,0,0-7.31,7,19,19,0,0,0-2.6,9.84,18.84,18.84,0,0,0,2.6,9.81,18.56,18.56,0,0,0,7.31,6.9"/><path class="cls-1" d="M278.06,39.61a25.9,25.9,0,0,1-23.29,0,20.18,20.18,0,0,1-8-7.6,20.71,20.71,0,0,1-2.87-10.77,20.87,20.87,0,0,1,2.87-10.82,20.32,20.32,0,0,1,8-7.63,25.82,25.82,0,0,1,23.29,0,20.23,20.23,0,0,1,8.05,7.61A20.78,20.78,0,0,1,289,21.23,20.62,20.62,0,0,1,286.11,32a20.16,20.16,0,0,1-8.05,7.58m-22.21-1.67A23.53,23.53,0,0,0,277,38a18.31,18.31,0,0,0,7.32-6.9,18.8,18.8,0,0,0,2.62-9.82,18.92,18.92,0,0,0-2.62-9.87A18.48,18.48,0,0,0,277,4.42a23.28,23.28,0,0,0-21.13,0,18.41,18.41,0,0,0-7.3,7,18.87,18.87,0,0,0-2.62,9.84A18.76,18.76,0,0,0,248.55,31a18.4,18.4,0,0,0,7.3,6.9"/><path class="cls-1" d="M188.26,24a11.19,11.19,0,0,0-5.9-3.92,10.22,10.22,0,0,0,5-3.67,9.55,9.55,0,0,0,1.92-5.8A9.1,9.1,0,0,0,186,3.47,12.12,12.12,0,0,0,177.69.6H161.11V41.74h16.64A13.29,13.29,0,0,0,187,38.53,10.61,10.61,0,0,0,188.26,24M185.5,37.11a10.41,10.41,0,0,1-7.29,2.71H163.16V2.49h15a9.22,9.22,0,0,1,6.42,2.4,7.62,7.62,0,0,1,2.64,5.86,8,8,0,0,1-2.55,5.9,8.41,8.41,0,0,1-5.49,2.45v2a9.88,9.88,0,0,1,6.39,2.66,9,9,0,0,1,0,13.33"/><path class="cls-1" d="M27.15,24a11.22,11.22,0,0,0-5.91-3.92,10.22,10.22,0,0,0,5-3.67,9.5,9.5,0,0,0,1.93-5.8A9.11,9.11,0,0,0,24.9,3.47,12.08,12.08,0,0,0,16.57.6H0V41.74H16.63a13.3,13.3,0,0,0,9.25-3.21,10.28,10.28,0,0,0,3.57-8A10.41,10.41,0,0,0,27.15,24M24.38,37.11a10.41,10.41,0,0,1-7.29,2.71H2V2.49H17a9.2,9.2,0,0,1,6.42,2.4,7.62,7.62,0,0,1,2.64,5.86,8,8,0,0,1-2.55,5.9,8.5,8.5,0,0,1-6.18,2.51h0v1.9a10,10,0,0,1,7.11,2.72,9,9,0,0,1,0,13.33"/><path class="cls-1" d="M103,24a11.15,11.15,0,0,0-5.9-3.92,10.22,10.22,0,0,0,5-3.67,9.56,9.56,0,0,0,1.93-5.8,9.11,9.11,0,0,0-3.24-7.11A12.1,12.1,0,0,0,92.42.6H75.85V41.74H92.48a13.26,13.26,0,0,0,9.24-3.21,10.25,10.25,0,0,0,3.58-8A10.36,10.36,0,0,0,103,24m-2.76,13.14a10.41,10.41,0,0,1-7.29,2.71h-15V2.49h15a9.2,9.2,0,0,1,6.42,2.4,7.62,7.62,0,0,1,2.64,5.86,8,8,0,0,1-2.55,5.9,8.48,8.48,0,0,1-6.18,2.51h0v1.9a10,10,0,0,1,7.11,2.72,9,9,0,0,1,0,13.33"/></g></g></svg>